# xmcd
#
# Track frame offsets:
#	150
#	16025
#	31841
#	48249
#	63967
#	76717
#	90411
#	104827
#	121927
#	140823
#	155093
#
# Disc length: 2251 seconds
#
# Revision: 0
# Processed by: cddbd v1.5.2PL0 Copyright (c) Steve Scherf et al.
# Submitted via: dBpowerAMP V4.0
#
DISCID=8308c90b
DTITLE=JUAN GABRIEL - JUAN GABRIEL
DYEAR=2010
DGENRE=RANCHERA
TTITLE0=TE VAS A QUEDAR CON LAS GANAS
TTITLE1=GRACIAS AL AMOR
TTITLE2=LAS TARDES AQUELLAS
TTITLE3=MI MAS BELLO ERROR
TTITLE4=EL CONSENTIDO
TTITLE5=¿POQUE ME HACES LLORAR?
TTITLE6=DE LA CABEZA A LOS PIES
TTITLE7=AMOR AVENTURERO
TTITLE8=MARIACHI
TTITLE9=NUNCA NUNCA VUELVAS
TTITLE10=AGRADECIMIENTO
EXTD=juan gabrtiel
EXTT0=
EXTT1=
EXTT2=
EXTT3=
EXTT4=
EXTT5=
EXTT6=
EXTT7=
EXTT8=
EXTT9=
EXTT10=
PLAYORDER=
